<svg width="541" height="541" viewBox="0 0 541 541" fill="none" xmlns="http://www.w3.org/2000/svg">
<g clip-path="url(#clip0)">
<path d="M129.989 378.772C138.263 378.772 145.35 373.766 151.232 363.736C205.045 268.313 233.038 218.643 235.223 214.708L181.63 121.25C175.963 111.446 168.772 106.543 160.063 106.543H81.9531C76.9341 106.543 73.4581 108.177 71.4941 111.445C69.0951 114.713 69.2051 118.746 71.8191 123.532L124.432 214.708C124.646 214.94 124.646 215.039 124.432 215.039L41.7501 361.453C39.5781 365.602 39.5781 369.519 41.7501 373.21C43.9231 376.925 47.3071 378.772 51.8791 378.772H129.989Z" fill="#302F2F"/>
<path d="M488.492 0H409.734C401.239 0 394.262 4.902 388.822 14.707C277.053 212.97 219.206 315.596 215.283 322.555L326.067 525.837C331.294 535.641 338.485 540.543 347.634 540.543H425.738C430.529 540.543 434.018 538.909 436.197 535.641C438.369 531.926 438.265 527.893 435.872 523.542L326.073 322.555V322.237L498.627 16.995C501.02 12.424 501.02 8.403 498.627 4.908C496.662 1.634 493.284 0 488.492 0Z" fill="#0D5E9D"/>
<path d="M69.1211 443.148H48.0977V458.898H72.6719V466H39.2031V414.812H72.4258V421.984H48.0977V436.117H69.1211V443.148ZM95.6641 447.684H77.207V440.793H95.6641V447.684ZM118.34 459.883C120.473 459.883 122.242 459.262 123.648 458.02C125.055 456.777 125.805 455.242 125.898 453.414H133.949C133.855 455.781 133.117 457.996 131.734 460.059C130.352 462.098 128.477 463.715 126.109 464.91C123.742 466.105 121.188 466.703 118.445 466.703C113.125 466.703 108.906 464.98 105.789 461.535C102.672 458.09 101.113 453.332 101.113 447.262V446.383C101.113 440.594 102.66 435.965 105.754 432.496C108.848 429.004 113.066 427.258 118.41 427.258C122.934 427.258 126.613 428.582 129.449 431.23C132.309 433.855 133.809 437.312 133.949 441.602H125.898C125.805 439.422 125.055 437.629 123.648 436.223C122.266 434.816 120.496 434.113 118.34 434.113C115.574 434.113 113.441 435.121 111.941 437.137C110.441 439.129 109.68 442.164 109.656 446.242V447.613C109.656 451.738 110.395 454.82 111.871 456.859C113.371 458.875 115.527 459.883 118.34 459.883ZM138.801 446.629C138.801 442.902 139.539 439.551 141.016 436.574C142.492 433.574 144.566 431.277 147.238 429.684C149.91 428.066 152.98 427.258 156.449 427.258C161.582 427.258 165.742 428.91 168.93 432.215C172.141 435.52 173.875 439.902 174.133 445.363L174.168 447.367C174.168 451.117 173.441 454.469 171.988 457.422C170.559 460.375 168.496 462.66 165.801 464.277C163.129 465.895 160.035 466.703 156.52 466.703C151.152 466.703 146.852 464.922 143.617 461.359C140.406 457.773 138.801 453.004 138.801 447.051V446.629ZM147.344 447.367C147.344 451.281 148.152 454.352 149.77 456.578C151.387 458.781 153.637 459.883 156.52 459.883C159.402 459.883 161.641 458.758 163.234 456.508C164.852 454.258 165.66 450.965 165.66 446.629C165.66 442.785 164.828 439.738 163.164 437.488C161.523 435.238 159.285 434.113 156.449 434.113C153.66 434.113 151.445 435.227 149.805 437.453C148.164 439.656 147.344 442.961 147.344 447.367ZM189.426 427.961L189.672 431.934C192.344 428.816 196 427.258 200.641 427.258C205.727 427.258 209.207 429.203 211.082 433.094C213.848 429.203 217.738 427.258 222.754 427.258C226.949 427.258 230.066 428.418 232.105 430.738C234.168 433.059 235.223 436.48 235.27 441.004V466H226.727V441.25C226.727 438.836 226.199 437.066 225.145 435.941C224.09 434.816 222.344 434.254 219.906 434.254C217.961 434.254 216.367 434.781 215.125 435.836C213.906 436.867 213.051 438.227 212.559 439.914L212.594 466H204.051V440.969C203.934 436.492 201.648 434.254 197.195 434.254C193.773 434.254 191.348 435.648 189.918 438.438V466H181.375V427.961H189.426Z" fill="#3F3D56"/>
</g>
<defs>
<clipPath id="clip0">
<rect width="540.543" height="540.543" fill="white"/>
</clipPath>
</defs>
</svg>
